 <svg  version="1.0" xmlns="http://www.w3.org/2000/svg"  width="300.000000pt" height="300.000000pt" viewBox="0 0 300.000000 300.000000"  preserveAspectRatio="xMidYMid meet">  <g transform="translate(0.000000,300.000000) scale(0.100000,-0.100000)" fill="#fee005" stroke="none"> <path d="M935 2866 c-11 -16 -22 -22 -35 -19 -15 4 -20 0 -20 -16 0 -11 4 -21 9 -21 21 0 85 -73 112 -128 27 -57 30 -87 7 -103 -5 -3 9 -30 30 -60 22 -30 42 -64 46 -76 4 -13 14 -23 22 -23 8 0 12 -5 9 -11 -4 -5 1 -19 11 -30 17 -19 16 -19 -25 -19 -42 0 -42 1 -36 29 4 17 2 32 -5 36 -6 4 -8 15 -5 24 3 10 -1 24 -9 30 -20 16 -61 10 -61 -9 0 -8 -6 -19 -12 -23 -7 -4 -13 -16 -13 -27 0 -16 3 -17 24 -7 14 7 27 21 30 32 5 17 8 18 16 5 5 -8 9 -29 8 -47 -1 -37 16 -63 43 -63 11 0 19 -5 19 -11 0 -5 5 -7 12 -3 6 4 8 3 5 -4 -4 -5 -3 -21 2 -34 l10 -23 1 25 c1 41 14 54 38 39 14 -9 20 -22 19 -45 -1 -18 -5 -30 -9 -27 -5 2 -8 -2 -9 -9 0 -7 -7 3 -14 22 -13 34 -13 35 -14 7 -1 -16 -5 -26 -11 -22 -21 13 -9 -47 14 -70 13 -13 27 -38 31 -55 4 -16 13 -30 21 -30 11 0 13 7 8 26 -5 19 -4 25 5 20 6 -4 11 -16 11 -27 0 -10 7 -19 15 -19 25 0 18 46 -10 68 -32 26 -34 76 -3 109 l22 23 -29 30 c-16 17 -35 30 -42 30 -7 0 -13 11 -13 24 0 14 -14 40 -30 58 -33 35 -94 148 -80 148 4 0 11 12 14 26 6 21 0 35 -23 65 -17 21 -31 47 -31 57 0 25 -23 44 -47 40 -11 -2 -18 3 -18 12 0 8 -4 22 -9 30 -7 12 -6 13 5 3 23 -23 35 -14 37 27 3 47 -18 55 -43 16z"/> <path d="M854 2755 c-14 -21 -14 -28 -3 -41 7 -9 22 -14 35 -11 14 2 21 0 18 -8 -3 -6 1 -17 9 -24 23 -18 43 12 22 33 -9 9 -21 16 -26 16 -5 0 -9 14 -9 30 0 37 -23 40 -46 5z"/> <path d="M961 2679 c-1 -9 -9 -31 -18 -50 -9 -19 -19 -62 -21 -97 -3 -42 -9 -65 -18 -69 -10 -4 -12 -9 -4 -18 7 -9 6 -16 -5 -25 -17 -14 -20 -40 -5 -40 22 0 61 33 56 47 -6 15 10 92 27 133 6 14 9 31 8 39 -1 8 3 10 11 6 7 -3 5 0 -6 9 -10 8 -15 19 -12 24 3 6 2 21 -3 34 -6 14 -10 17 -10 7z"/> <path d="M983 2377 c-4 -6 -1 -7 6 -2 9 5 12 2 9 -11 -2 -12 -13 -20 -31 -22 -15 -2 -27 -7 -27 -11 0 -5 -9 -11 -20 -14 -15 -4 -20 0 -20 14 0 22 -1 23 -35 7 -14 -6 -25 -18 -25 -27 0 -14 -2 -14 -10 -1 -8 12 -10 11 -10 -7 0 -12 5 -23 11 -25 12 -4 19 -58 20 -166 1 -62 4 -73 18 -70 16 3 17 26 6 103 -4 24 -3 26 4 10 8 -16 10 -12 10 22 1 23 -3 45 -9 48 -5 3 -10 22 -10 41 0 31 3 34 30 34 44 0 98 30 108 60 8 21 7 27 -5 27 -7 0 -17 -5 -20 -10z"/> <path d="M1050 2294 c0 -51 -18 -116 -31 -109 -5 4 -9 15 -9 26 0 10 -4 19 -9 19 -10 0 -8 -63 4 -122 6 -33 5 -37 -17 -40 -16 -2 -24 -10 -26 -29 -3 -22 -7 -25 -28 -21 -14 2 -24 0 -24 -7 0 -19 -18 -13 -86 29 -65 39 -84 43 -84 15 0 -14 83 -64 125 -75 17 -5 20 -15 20 -80 0 -41 4 -83 9 -94 7 -15 6 -17 -10 -13 -10 3 -40 8 -66 12 -46 6 -48 5 -48 -18 0 -33 -11 -40 -26 -18 -16 22 -55 32 -78 19 -22 -12 -20 -20 14 -59 16 -19 30 -37 30 -40 0 -3 16 -6 36 -7 35 -1 35 -1 32 36 l-3 37 79 -2 78 -2 -6 30 c-3 16 -2 28 3 25 5 -3 11 4 15 17 8 32 6 45 -4 22 -8 -18 -9 -18 -9 -2 -1 10 -6 15 -11 12 -7 -5 -10 16 -8 62 3 66 4 68 31 71 19 2 27 -1 27 -12 0 -8 -4 -18 -10 -21 -13 -8 -13 -55 0 -55 5 0 7 -7 4 -15 -4 -9 0 -15 7 -15 11 0 11 -3 -1 -10 -13 -8 -13 -10 1 -10 9 0 24 -9 34 -20 10 -11 14 -20 10 -20 -5 0 -4 -5 3 -12 7 -7 12 -20 12 -31 0 -10 4 -16 9 -12 5 3 12 1 15 -4 3 -5 15 -7 26 -4 12 3 20 0 20 -6 0 -7 5 -9 10 -6 6 3 10 0 11 -7 0 -7 5 -3 11 10 12 25 48 27 56 3 3 -9 -1 -11 -16 -7 -11 4 -23 3 -26 -2 -6 -11 70 -26 85 -17 5 4 9 15 9 26 0 13 -7 19 -23 19 -13 0 -32 9 -41 19 -19 21 -55 18 -69 -6 -4 -7 -13 -13 -18 -13 -6 0 -7 5 -4 10 3 6 3 10 -2 10 -10 0 -64 85 -62 97 4 25 -2 33 -25 27 -35 -8 -42 14 -12 39 30 26 34 47 9 47 -13 0 -11 4 7 13 18 10 24 20 23 40 -1 22 2 27 23 27 25 0 32 14 13 25 -6 4 -8 13 -5 21 3 8 1 14 -4 14 -6 0 -10 7 -10 15 0 8 3 15 8 15 11 0 32 74 32 114 0 18 -7 39 -15 46 -13 11 -15 7 -15 -26z m-315 -552 c11 -8 18 -32 9 -32 -13 0 -44 21 -44 30 0 12 21 13 35 2z"/> <path d="M921 2189 l-23 -31 19 -51 c10 -29 23 -50 28 -47 12 6 11 14 -7 58 -11 30 -11 35 5 43 17 10 25 59 9 59 -5 0 -19 -14 -31 -31z"/> <path d="M1335 2192 c-6 -4 -16 -19 -24 -33 -20 -39 -6 -71 67 -156 13 -15 22 -39 22 -58 0 -19 8 -39 20 -50 11 -10 20 -13 20 -7 0 5 9 8 20 5 11 -3 20 -1 20 4 0 20 -71 140 -99 167 -37 35 -39 48 -9 61 13 6 24 18 26 28 7 34 -35 60 -63 39z"/> <path d="M1087 2143 c-15 -14 -6 -53 15 -67 12 -9 19 -17 15 -17 -18 -3 -23 -5 -43 -16 -26 -15 -51 -90 -35 -106 9 -9 17 -8 31 1 10 6 25 10 32 9 7 -2 3 1 -9 7 -27 12 -28 18 -9 55 24 46 40 54 81 41 19 -6 35 -14 35 -16 0 -3 -8 -17 -17 -31 -13 -19 -14 -25 -4 -18 11 6 13 4 8 -9 -4 -10 1 -28 13 -44 11 -15 22 -38 25 -50 8 -41 38 -102 51 -102 13 0 44 -38 44 -53 0 -5 -7 -4 -15 3 -19 16 -34 5 -17 -12 7 -7 12 -20 12 -30 0 -11 5 -15 14 -12 8 3 13 11 10 18 -3 8 5 12 26 10 16 -1 30 0 30 2 0 2 -13 23 -30 46 -16 22 -30 47 -30 53 0 7 -11 20 -25 29 -16 10 -25 26 -25 42 0 25 -44 79 -58 70 -4 -2 -8 10 -7 27 l0 32 55 -3 c30 -2 57 -7 60 -11 11 -16 40 -20 40 -6 0 34 -134 95 -179 80 -25 -8 -51 4 -51 24 0 14 2 14 10 1 8 -13 10 -12 10 3 0 42 -40 74 -63 50z"/> <path d="M2740 2141 c0 -5 -24 -26 -52 -47 -29 -21 -54 -42 -56 -46 -2 -5 -10 -8 -18 -8 -8 0 -14 -4 -14 -9 0 -5 -10 -12 -22 -16 -13 -4 -26 -8 -30 -10 -5 -1 -13 -3 -19 -4 -5 0 -8 -5 -5 -10 4 -5 0 -12 -6 -15 -7 -3 2 -3 21 0 18 3 53 16 78 30 24 13 47 22 51 20 4 -2 26 9 50 25 23 15 49 26 57 23 8 -4 15 -1 15 6 0 7 7 18 16 25 15 10 15 13 -1 28 -17 18 -65 23 -65 8z"/> <path d="M2860 2110 c-11 -11 -20 -29 -20 -40 0 -27 35 -60 63 -60 36 0 67 27 67 60 0 54 -71 79 -110 40z m70 -29 c0 -28 -13 -40 -31 -30 -27 14 -24 34 6 37 14 1 25 -2 25 -7z"/> <path d="M2280 2090 c0 -5 -11 -10 -23 -10 -24 0 -57 -28 -57 -47 0 -14 26 -11 42 5 7 7 20 12 31 12 20 0 47 22 47 39 0 6 -9 11 -20 11 -11 0 -20 -4 -20 -10z"/> <path d="M2353 2083 c-7 -2 -13 -11 -13 -19 0 -8 -7 -14 -16 -14 -12 0 -14 -3 -6 -13 7 -8 7 -18 2 -27 -6 -8 -10 -28 -10 -43 l0 -28 -54 6 c-38 5 -56 3 -61 -6 -5 -8 -4 -10 4 -5 6 4 17 4 24 -1 7 -5 30 -15 53 -22 22 -7 41 -19 41 -26 0 -7 -6 -11 -13 -8 -6 2 -15 0 -19 -6 -13 -22 33 -11 49 12 l16 22 24 -30 c14 -16 28 -26 31 -23 11 11 -22 63 -48 77 -18 10 -24 21 -23 42 2 42 20 56 51 39 36 -19 42 -5 18 37 -23 39 -30 45 -50 36z"/> <path d="M2475 2018 c-25 -35 -44 -70 -43 -78 4 -18 73 -26 92 -10 15 12 30 -18 41 -81 6 -40 29 -67 40 -49 3 5 3 16 -1 22 -5 7 -9 32 -11 55 -2 42 -2 42 35 45 24 2 47 -4 66 -16 27 -18 31 -18 80 -2 29 9 60 16 69 16 18 0 35 47 21 59 -5 5 -21 11 -36 15 -22 5 -27 2 -30 -16 -3 -26 -56 -46 -85 -33 -29 13 -43 12 -130 -9 -13 -2 -25 -1 -28 5 -4 5 -19 9 -36 9 -37 0 -39 28 -4 66 26 28 32 49 15 59 -5 3 -30 -23 -55 -57z"/> <path d="M2027 2005 c-22 -20 -25 -26 -13 -31 8 -3 23 -1 34 5 12 6 27 8 35 5 8 -3 18 -1 22 5 3 6 14 11 23 11 16 -1 16 -1 0 -11 -25 -14 -22 -46 5 -60 23 -12 40 -34 43 -58 4 -20 46 -61 56 -55 5 4 0 17 -13 30 l-22 23 38 -6 c28 -4 36 -3 31 5 -4 7 -15 12 -25 12 -9 0 -35 18 -56 40 -33 34 -37 42 -25 50 8 5 23 10 32 10 35 0 6 28 -35 33 -23 3 -55 8 -72 12 -23 4 -36 0 -58 -20z"/> <path d="M2695 2000 c-10 -11 -16 -22 -14 -24 5 -5 38 -9 57 -7 18 2 15 38 -4 45 -21 8 -18 9 -39 -14z"/> <path d="M1551 1991 c-6 -11 -11 -28 -11 -38 0 -10 -7 -27 -15 -37 -8 -10 -12 -23 -8 -29 3 -5 -3 -6 -15 -3 -11 4 -23 2 -27 -4 -4 -6 4 -10 18 -10 27 0 69 40 64 61 -2 8 -2 11 0 6 3 -4 9 -5 13 -2 5 3 16 -5 25 -17 l17 -23 -6 28 c-4 16 -2 27 4 27 6 0 10 12 8 28 -4 35 -51 45 -67 13z"/> <path d="M1855 1989 c-4 -6 -14 -8 -22 -5 -19 8 -105 -45 -99 -60 3 -6 -1 -17 -7 -23 -9 -9 -6 -13 13 -18 23 -7 22 -8 -15 -18 -44 -13 -61 -49 -29 -62 19 -7 46 21 38 42 -5 13 22 25 42 18 19 -6 4 -41 -19 -47 l-22 -6 24 -20 c27 -23 54 -26 70 -6 9 10 8 16 -4 26 -8 7 -15 21 -15 31 0 26 40 25 47 -1 4 -14 14 -20 34 -20 16 0 29 -5 29 -10 0 -5 6 -9 13 -7 7 1 11 -6 9 -16 -2 -10 5 -30 15 -45 11 -15 28 -44 38 -64 20 -40 39 -48 49 -23 9 25 28 17 24 -12 -2 -19 -10 -27 -28 -30 -13 -2 -28 -7 -33 -12 -15 -15 5 -41 30 -41 28 0 66 36 56 53 -4 6 3 8 20 3 15 -3 27 -2 29 5 2 7 13 9 26 5 22 -7 31 -26 13 -26 -15 0 -127 -69 -146 -90 -31 -34 1 -29 63 11 35 21 66 39 71 39 17 0 101 72 95 81 -3 6 -8 8 -11 5 -3 -2 -16 -1 -30 5 -13 5 -22 5 -19 0 7 -10 -24 -25 -33 -16 -3 3 1 10 9 15 9 6 10 10 3 10 -6 0 -14 -4 -17 -9 -3 -5 -24 -11 -46 -13 -55 -5 -53 17 9 83 l49 52 53 -8 c30 -4 70 -9 89 -11 19 -1 37 -3 39 -3 3 -1 -4 -7 -14 -15 -12 -9 -27 -11 -40 -6 -11 4 -37 10 -58 14 -30 6 -37 4 -31 -5 5 -9 2 -10 -9 -6 -11 4 -17 1 -17 -8 0 -8 -4 -15 -9 -15 -5 0 -11 -8 -14 -19 -3 -14 0 -17 14 -14 11 3 19 14 19 24 0 16 7 19 45 17 28 -2 45 -8 45 -15 0 -23 49 -14 82 15 18 16 55 40 81 55 38 21 53 24 73 17 52 -20 57 -9 18 38 -15 18 -33 32 -40 32 -7 0 -17 8 -23 18 -9 15 -15 12 -54 -28 -59 -59 -80 -76 -90 -72 -5 1 -6 -2 -2 -8 3 -5 -2 -10 -12 -10 -26 0 -94 25 -88 32 4 3 -10 8 -30 10 -32 4 -40 -1 -85 -48 -33 -35 -48 -58 -44 -68 5 -12 2 -15 -12 -10 -35 13 -54 37 -60 76 -6 37 -27 58 -62 64 -7 1 -25 10 -40 20 -15 10 -30 17 -34 16 -5 -1 -8 3 -8 8 0 6 -21 10 -46 10 -25 0 -43 4 -40 9 4 5 0 11 -6 14 -24 8 32 55 79 67 72 18 109 4 104 -37 -1 -7 3 -13 8 -13 5 0 10 -8 10 -17 3 -49 6 -63 18 -63 7 0 13 -4 13 -9 0 -9 78 -51 93 -51 16 0 5 29 -13 35 -26 8 -80 54 -80 68 0 6 -8 19 -17 29 -15 17 -15 19 3 33 24 17 10 46 -27 56 -38 11 -97 10 -104 -2z"/> <path d="M1254 1969 c-3 -6 5 -23 18 -37 14 -15 31 -42 38 -60 7 -18 28 -44 45 -58 27 -21 40 -24 76 -19 75 10 129 27 122 38 -4 6 -1 7 7 2 7 -4 15 -3 19 2 12 20 51 -5 58 -37 6 -33 45 -66 63 -55 8 5 7 12 -3 23 -19 22 -47 79 -52 104 -6 27 -9 30 -27 23 -10 -4 -14 -14 -11 -26 3 -11 0 -19 -6 -19 -7 0 -9 5 -5 11 4 8 1 8 -12 1 -11 -6 -23 -11 -29 -11 -5 -1 -26 -5 -45 -10 -91 -23 -148 -18 -103 8 15 8 11 10 -19 11 -30 0 -38 4 -38 19 0 10 -7 24 -15 31 -8 7 -13 16 -10 20 4 6 -47 50 -59 50 -3 0 -8 -5 -12 -11z"/> <path d="M1644 1939 c-8 -14 16 -59 32 -59 21 0 38 39 23 56 -14 17 -45 19 -55 3z"/> <path d="M2036 1914 c-21 -20 -20 -33 2 -51 11 -10 12 -12 2 -8 -8 4 -6 -1 4 -9 37 -30 96 -10 96 32 0 43 -73 68 -104 36z"/> <path d="M1056 1904 c-11 -29 -6 -51 15 -70 20 -18 21 -18 34 0 9 12 11 24 5 35 -5 9 -11 24 -14 34 -7 21 -32 22 -40 1z"/> <path d="M1141 1878 c-1 -43 2 -49 30 -63 18 -10 29 -22 26 -30 -4 -9 1 -11 14 -8 10 3 19 9 19 14 0 12 -46 59 -58 59 -7 0 -14 12 -18 28 -10 48 -12 48 -13 0z"/> <path d="M2288 1843 c-26 -4 -32 -12 -25 -30 3 -9 85 -8 93 0 4 3 4 13 1 22 -6 15 -16 16 -69 8z"/> <path d="M956 1794 c-8 -21 1 -34 25 -34 23 0 26 35 3 44 -21 8 -21 8 -28 -10z"/> <path d="M1556 1794 c-24 -24 -18 -78 10 -82 32 -5 58 31 47 65 -11 33 -34 40 -57 17z"/> <path d="M493 1784 c-3 -8 0 -27 8 -42 7 -15 15 -31 18 -36 2 -5 -1 -6 -6 -3 -11 7 -25 -31 -17 -45 11 -17 21 -7 33 33 10 32 16 39 29 33 9 -4 32 -9 49 -12 18 -2 30 -8 27 -13 -3 -5 0 -9 7 -9 7 0 9 -11 5 -35 -4 -19 -3 -34 1 -33 4 2 10 -1 12 -7 2 -5 19 -28 37 -49 19 -22 34 -44 34 -49 0 -23 56 -67 85 -67 17 0 45 -4 62 -9 39 -11 73 -4 73 15 0 18 -32 32 -37 17 -4 -12 -46 1 -100 30 -18 9 -39 17 -48 17 -8 0 -15 4 -15 9 0 5 -20 31 -45 59 -40 45 -60 83 -36 67 5 -3 13 -1 16 5 9 15 -22 60 -40 60 -8 0 -15 5 -15 10 0 6 -13 10 -30 10 -18 0 -30 5 -30 13 0 19 -33 47 -54 47 -9 0 -19 -7 -23 -16z"/> <path d="M1856 1785 c-30 -31 -12 -65 34 -65 15 0 37 -9 50 -20 13 -11 25 -20 28 -20 6 0 -28 41 -41 51 -5 3 -8 9 -8 13 3 21 0 38 -6 33 -3 -4 -14 0 -23 8 -16 14 -19 14 -34 0z"/> <path d="M1480 1771 c-25 -7 -43 -51 -20 -51 6 0 8 -4 5 -10 -3 -5 4 -10 15 -10 16 0 20 4 16 16 -3 8 -2 13 3 10 8 -6 21 14 27 42 2 13 -7 14 -46 3z"/> <path d="M1384 1759 c-3 -6 0 -18 9 -26 18 -18 37 -9 37 18 0 21 -34 27 -46 8z"/> <path d="M1721 1739 l-24 -32 24 -18 c36 -28 51 -25 37 6 -16 36 -4 41 33 15 22 -16 45 -23 78 -23 25 0 40 -2 33 -4 -8 -3 -2 -14 18 -33 26 -24 30 -35 30 -77 0 -50 -19 -82 -52 -87 -7 -1 -19 -5 -25 -9 -8 -5 -13 -4 -13 2 0 6 -11 11 -24 11 -34 0 -56 10 -56 25 0 20 -54 43 -84 38 -16 -3 -26 -1 -26 7 0 7 8 9 20 5 12 -4 20 -2 20 5 0 6 6 8 13 4 8 -5 9 -4 2 3 -35 37 -89 13 -83 -36 3 -22 9 -27 44 -31 22 -3 53 -16 69 -28 30 -24 85 -30 85 -9 0 6 9 1 19 -12 l19 -24 38 31 c21 18 44 32 51 32 9 0 13 19 13 66 0 62 -2 68 -35 101 -22 22 -43 34 -57 33 -38 -3 -62 0 -55 7 6 6 -70 63 -84 63 -3 0 -16 -14 -28 -31z"/> <path d="M192 1748 c-7 -7 -12 -17 -12 -23 0 -13 42 -35 64 -35 22 0 28 31 10 51 -20 22 -45 24 -62 7z"/> <path d="M804 1735 c-12 -31 23 -48 45 -21 10 12 8 17 -8 25 -26 14 -31 14 -37 -4z"/> <path d="M891 1718 c-73 -37 -75 -49 -2 -17 41 17 54 19 66 9 17 -14 36 -5 29 15 -10 25 -30 23 -93 -7z"/> <path d="M1000 1736 c0 -23 28 -39 56 -32 16 4 23 3 20 -3 -8 -13 23 -30 49 -28 15 2 19 -4 18 -20 -2 -13 1 -23 6 -23 5 0 11 -13 14 -29 5 -22 16 -34 47 -47 62 -28 52 -43 -27 -40 -72 3 -97 10 -126 34 -12 11 -21 12 -28 5 -8 -8 2 -19 33 -40 35 -24 54 -30 106 -31 43 -1 60 2 56 10 -4 6 6 1 23 -11 30 -22 57 -21 67 4 3 8 -3 17 -15 20 -15 5 -19 15 -19 47 0 41 0 41 -21 22 -16 -15 -23 -16 -37 -6 -9 7 -25 15 -34 18 -21 7 -22 13 -4 37 19 24 6 73 -18 69 -10 -2 -23 1 -29 6 -7 5 -31 13 -54 17 -23 3 -44 13 -47 21 -7 18 -36 18 -36 0z"/> <path d="M50 1720 c0 -25 34 -46 90 -54 24 -4 49 -11 55 -15 5 -5 26 -11 45 -14 62 -9 80 -16 111 -42 17 -14 35 -22 40 -19 7 4 8 -7 4 -29 -8 -42 13 -55 51 -30 24 15 24 17 7 26 -10 6 -40 32 -67 59 -48 48 -56 69 -18 49 11 -6 27 -8 36 -5 12 5 9 11 -14 31 -29 24 -60 26 -60 3 0 -12 -71 -13 -122 -1 -21 5 -51 21 -69 35 -38 32 -89 36 -89 6z"/> <path d="M429 1723 c0 -11 -3 -13 -6 -5 -5 13 -33 17 -33 4 0 -5 14 -21 30 -37 17 -16 30 -35 30 -42 0 -7 5 -13 11 -13 6 0 9 -10 8 -22 -1 -13 3 -36 9 -51 14 -34 15 -40 3 -32 -5 3 -13 0 -17 -6 -4 -8 5 -22 22 -36 30 -24 54 -30 54 -14 0 17 55 5 58 -13 3 -13 -1 -16 -22 -10 -46 11 -31 -23 20 -45 25 -11 43 -24 40 -29 -5 -8 53 -48 65 -45 4 1 15 -7 24 -17 10 -11 23 -20 30 -20 6 0 22 -11 34 -24 21 -22 84 -43 119 -39 7 0 11 -1 8 -4 -9 -10 15 -44 26 -37 5 4 13 2 17 -5 10 -16 51 16 51 40 0 17 -5 19 -34 13 -19 -3 -41 -2 -48 3 -7 4 -24 8 -38 9 -46 2 -66 15 -151 96 -21 20 -56 46 -79 58 -22 11 -40 27 -40 36 0 8 5 12 10 9 6 -3 10 1 10 9 0 12 11 16 48 16 l47 -1 -27 -20 c-27 -20 -38 -49 -19 -49 5 0 17 7 26 16 16 17 45 13 45 -7 0 -9 -4 -9 -14 0 -10 8 -16 9 -21 1 -3 -5 1 -13 9 -16 9 -3 16 -12 16 -18 0 -18 43 -56 64 -56 10 0 29 9 43 20 28 22 48 27 37 9 -4 -8 0 -8 15 0 16 9 21 9 21 0 0 -6 7 -9 15 -5 11 4 16 -4 21 -33 3 -21 10 -44 15 -52 14 -24 20 -3 10 40 -6 30 -6 39 3 34 6 -4 20 -9 31 -10 10 -2 29 -13 41 -24 13 -12 29 -19 36 -17 12 4 -14 33 -82 91 -8 7 -22 24 -31 37 -16 24 -17 24 -36 8 -21 -19 -69 -25 -58 -8 3 6 -1 10 -9 10 -9 0 -16 -4 -16 -9 0 -5 -8 -8 -17 -7 -10 0 -18 -6 -18 -14 0 -8 -8 -16 -17 -18 -11 -2 -18 3 -18 13 0 26 -91 111 -127 118 -21 4 -33 2 -36 -6 -3 -9 -8 -9 -20 1 -9 8 -21 11 -26 8 -12 -8 -51 13 -69 36 -7 9 -19 23 -26 31 -8 7 -17 43 -21 78 -7 62 -18 89 -36 89 -5 0 -9 -8 -10 -17z"/> <path d="M1507 1706 c-5 -12 2 -20 21 -29 36 -16 43 -27 26 -44 -8 -8 -17 -25 -20 -38 -9 -37 -34 -40 -34 -4 l0 30 -22 -22 c-16 -14 -19 -23 -11 -26 8 -3 3 -13 -14 -27 -19 -16 -24 -28 -19 -43 10 -31 36 -38 36 -9 0 22 28 56 46 56 5 0 2 -5 -6 -11 -12 -9 -10 -10 8 -6 13 3 21 3 18 0 -3 -3 4 -19 15 -35 12 -16 20 -30 18 -31 -2 -1 -14 -7 -25 -14 -16 -8 -32 -9 -63 -1 -37 9 -44 8 -56 -8 -8 -12 -10 -23 -4 -29 13 -13 11 -22 -5 -22 -21 0 -27 46 -7 57 9 5 11 10 4 10 -8 0 -10 19 -7 66 l4 66 -33 -7 c-48 -11 -51 -15 -27 -40 20 -21 22 -31 15 -79 -5 -46 -4 -57 9 -62 20 -8 21 -33 1 -40 -8 -3 -17 -14 -20 -25 -4 -11 -10 -17 -15 -14 -4 3 -10 -2 -14 -10 -8 -21 -28 -19 -49 6 l-18 20 -31 -26 c-19 -16 -37 -23 -49 -20 -15 5 -17 3 -12 -12 8 -21 95 -103 110 -103 3 0 23 15 42 34 20 19 53 49 75 68 33 30 39 41 44 86 l5 52 37 0 c21 0 43 -7 50 -15 12 -14 15 -14 31 1 11 10 19 25 19 34 0 10 7 20 15 24 11 4 15 -2 15 -20 0 -26 0 -26 26 -9 22 14 28 15 35 4 5 -8 9 -17 9 -21 0 -4 7 -14 16 -22 8 -9 11 -16 5 -16 -6 0 -8 -7 -5 -15 4 -8 11 -15 16 -15 6 0 17 -8 24 -17 7 -10 14 -13 14 -7 0 6 -7 17 -15 24 -8 7 -13 16 -10 20 2 4 -4 15 -15 25 -21 19 -28 41 -9 29 9 -5 10 1 5 22 -11 43 -22 50 -57 37 -31 -12 -58 -8 -71 11 -9 13 10 36 29 36 8 0 11 5 7 11 -3 6 -16 8 -27 5 -24 -6 -47 9 -47 32 0 16 76 93 95 96 18 3 59 35 53 42 -8 7 -78 -17 -78 -27 0 -4 -12 -9 -26 -12 -18 -3 -32 2 -48 20 -20 21 -24 22 -29 9z m-110 -381 c0 -8 -6 -15 -14 -15 -7 0 -13 -4 -13 -8 0 -4 -18 -27 -41 -51 l-41 -42 -22 19 c-11 11 -30 22 -41 24 -19 3 -19 4 3 26 18 18 29 22 57 16 33 -6 95 19 95 38 0 4 4 8 8 8 5 0 9 -7 9 -15z"/> <path d="M1243 1703 c-19 -7 -16 -50 4 -57 16 -7 33 8 33 30 0 16 -23 32 -37 27z"/> <path d="M1425 1701 c-3 -6 -12 -8 -19 -5 -7 3 -18 -2 -25 -10 -7 -8 -18 -13 -26 -10 -7 3 -16 1 -20 -5 -4 -7 0 -8 11 -4 12 4 15 3 10 -5 -5 -8 -2 -10 8 -6 9 3 16 1 16 -5 0 -6 -5 -11 -11 -11 -5 0 -8 -4 -5 -8 2 -4 -14 -9 -36 -9 -35 -2 -39 0 -35 17 3 11 2 20 -3 20 -15 0 -18 -39 -3 -59 14 -20 60 -31 48 -11 -3 5 7 12 22 16 51 11 55 14 50 35 -4 15 -3 18 7 9 10 -8 12 -5 9 14 -4 18 0 25 14 28 12 2 14 6 6 11 -6 4 -14 3 -18 -2z"/> <path d="M955 1680 c-27 -6 -24 -7 27 -14 50 -7 99 -3 87 8 -10 8 -87 13 -114 6z"/> <path d="M790 1666 c-14 -8 -28 -12 -32 -10 -11 7 -48 -15 -48 -28 0 -5 14 -27 32 -47 28 -32 38 -37 95 -42 47 -4 69 -12 88 -29 14 -13 25 -21 25 -18 0 3 28 -22 63 -55 34 -33 72 -66 85 -74 12 -9 22 -26 22 -38 0 -38 25 -37 43 1 10 20 12 34 6 34 -5 0 -7 5 -4 10 6 9 -8 14 -28 11 -4 0 -6 4 -5 10 2 6 -8 13 -21 14 -14 1 -27 8 -29 14 -2 7 -17 20 -32 29 -37 23 -113 92 -107 98 3 3 31 -18 62 -45 32 -28 61 -48 65 -46 4 3 27 -6 51 -18 45 -24 101 -26 126 -5 25 20 1 31 -54 24 -42 -5 -53 -4 -47 6 6 10 5 10 -7 1 -20 -16 -98 24 -124 65 -11 17 -28 31 -37 32 -10 0 -18 4 -18 10 0 5 -20 18 -44 29 -39 18 -62 42 -50 53 2 3 30 -8 62 -23 32 -16 74 -29 94 -31 20 -1 36 -6 35 -12 -1 -5 21 -16 48 -25 28 -9 56 -20 63 -24 26 -17 10 13 -18 33 -21 15 -29 28 -26 43 1 12 1 16 -1 10 -6 -17 -25 -16 -49 2 -19 15 -19 15 1 8 11 -3 17 -3 13 1 -3 4 -40 9 -82 10 -57 2 -81 8 -96 21 -19 17 -21 17 -38 2 -10 -10 -21 -14 -25 -11 -3 3 -14 1 -24 -6 -16 -10 -15 -10 7 -5 25 5 25 5 2 -7 -28 -14 -40 -3 -24 22 14 23 14 23 -18 6z m0 -62 c0 -14 1 -14 16 0 20 20 34 20 64 -1 53 -37 56 -45 14 -37 -21 3 -45 12 -53 18 -11 8 -13 8 -7 -1 11 -20 -34 -16 -56 4 -24 21 -23 33 2 33 12 0 20 -7 20 -16z"/> <path d="M1440 1660 c0 -11 5 -20 11 -20 5 0 7 -4 4 -10 -3 -5 0 -10 7 -10 8 0 14 9 14 20 0 11 -6 20 -14 20 -7 0 -10 5 -7 10 3 6 1 10 -4 10 -6 0 -11 -9 -11 -20z"/> <path d="M1680 1665 c-7 -8 -18 -15 -24 -15 -6 0 -31 -18 -54 -40 -35 -32 -40 -41 -27 -46 9 -4 25 2 38 12 45 38 97 89 97 97 0 12 -17 8 -30 -8z"/> <path d="M1715 1629 c-8 -23 1 -39 21 -39 8 0 12 -4 9 -10 -3 -5 -1 -10 4 -10 6 0 11 5 11 11 0 7 11 9 27 6 l28 -5 -23 18 c-12 10 -22 24 -22 32 0 21 -48 19 -55 -3z"/> <path d="M516 1621 c-4 -5 -1 -21 6 -36 9 -21 16 -25 38 -20 21 5 30 1 43 -18 8 -13 22 -24 31 -24 21 0 20 2 -8 30 -14 14 -22 28 -18 32 4 4 2 6 -3 4 -13 -3 -46 11 -67 28 -10 9 -18 11 -22 4z"/> <path d="M1230 1611 c0 -5 6 -14 14 -20 16 -13 32 2 21 19 -8 12 -35 13 -35 1z"/> <path d="M1331 1485 c-7 -16 -27 -42 -44 -56 -28 -24 -31 -30 -22 -55 12 -32 38 -42 62 -23 11 10 14 24 9 57 -3 24 -1 52 5 63 6 11 8 25 6 32 -3 7 -10 -1 -16 -18z"/> <path d="M1492 1493 c5 -26 38 -29 38 -4 0 15 -6 21 -21 21 -14 0 -19 -5 -17 -17z"/> <path d="M1945 1459 c-22 -16 -47 -35 -55 -42 -21 -17 -94 -22 -84 -6 10 16 -22 38 -46 32 -29 -8 -32 -32 -9 -61 l22 -27 -5 27 c-4 19 -1 25 9 21 7 -3 13 -9 13 -13 0 -4 11 -5 24 -3 22 5 26 0 36 -38 17 -68 30 -95 53 -116 32 -28 67 -72 67 -82 0 -5 7 -12 16 -15 8 -3 13 -10 10 -15 -3 -5 1 -12 9 -15 8 -3 14 -9 13 -14 -2 -4 11 -25 29 -46 l32 -39 37 14 c46 17 46 33 -1 37 -29 3 -40 11 -62 45 -28 44 -65 87 -121 142 -40 39 -61 103 -40 119 8 6 28 21 44 34 16 13 40 29 54 35 27 14 34 50 10 54 -8 1 -33 -12 -55 -28z"/> <path d="M1599 1389 c-17 -17 -20 -29 -15 -63 l6 -41 -23 28 c-12 15 -28 27 -35 27 -7 0 -12 8 -12 19 0 24 -25 45 -45 37 -17 -6 -21 -36 -5 -36 16 0 12 -18 -10 -40 -23 -23 -26 -53 -6 -69 11 -10 17 -7 30 11 11 16 12 24 4 29 -11 7 -4 39 9 39 4 0 22 -9 40 -20 28 -17 31 -22 24 -47 -5 -16 -4 -39 1 -53 7 -18 4 -31 -13 -53 l-21 -29 42 -43 c36 -37 40 -46 31 -63 -6 -11 -11 -23 -11 -26 0 -13 28 -5 44 13 16 18 16 21 -8 57 -14 22 -33 47 -42 56 -13 14 -14 21 -5 31 13 16 11 87 -3 87 -5 0 -3 7 4 15 7 8 19 15 26 15 17 0 17 5 3 31 -11 21 -3 63 11 54 4 -3 10 7 13 20 6 34 -8 40 -34 14z"/> <path d="M1194 1386 c-10 -26 4 -48 28 -44 17 2 23 10 23 28 0 18 -6 26 -23 28 -13 2 -25 -3 -28 -12z"/> <path d="M1645 1321 c4 -19 2 -37 -4 -45 -15 -17 -5 -41 21 -53 15 -7 21 -20 24 -53 5 -65 13 -90 27 -90 9 0 12 29 12 110 -1 60 -3 112 -7 115 -3 3 -11 -8 -18 -25 -7 -16 -16 -30 -20 -30 -11 0 -20 27 -20 60 0 16 -5 32 -11 36 -8 4 -9 -3 -4 -25z"/> <path d="M852 1308 c-17 -17 4 -38 37 -38 33 0 67 23 57 38 -9 16 -79 15 -94 0z"/> <path d="M1756 1294 c-8 -21 -4 -25 23 -27 11 -1 21 -5 21 -10 0 -4 5 -5 10 -2 7 4 1 16 -15 31 -31 29 -31 29 -39 8z"/> <path d="M686 1272 c10 -41 21 -50 85 -68 65 -18 73 -33 40 -76 -18 -22 -18 -25 -3 -44 10 -12 24 -24 33 -27 18 -6 50 12 33 19 -6 3 3 21 23 42 33 36 39 62 16 69 -6 2 -15 -6 -18 -18 -9 -28 -32 -52 -45 -47 -6 2 -4 14 5 31 7 15 12 28 9 28 -2 1 -8 2 -14 3 -5 0 -10 5 -10 9 1 20 -65 55 -92 49 -9 -2 -33 41 -27 47 2 2 -6 6 -19 7 -20 4 -22 1 -16 -24z"/> <path d="M1024 1275 c-7 -18 3 -35 22 -35 20 0 30 30 13 41 -20 12 -29 11 -35 -6z"/> <path d="M1094 1251 c-10 -17 -21 -28 -24 -26 -14 8 -79 -57 -90 -89 -6 -19 -27 -46 -46 -61 -19 -15 -33 -29 -30 -32 3 -3 21 6 40 21 19 14 39 26 44 26 14 0 42 35 42 52 0 17 33 58 46 58 5 0 18 10 28 22 l19 22 18 -23 c11 -13 19 -29 19 -36 0 -7 7 -18 15 -25 8 -7 15 -17 15 -22 0 -6 -6 -6 -14 1 -11 9 -15 7 -19 -8 -7 -26 1 -33 25 -20 27 15 20 71 -16 127 -31 50 -49 53 -72 13z"/> <path d="M1505 1260 c-6 -9 0 -13 16 -12 3 1 6 -5 6 -13 0 -8 -5 -13 -11 -12 -5 1 -10 -3 -11 -10 0 -22 -14 -24 -25 -4 -12 23 -30 28 -30 9 0 -6 7 -20 17 -30 15 -17 15 -20 -6 -42 l-22 -23 22 -37 c14 -25 19 -44 15 -62 -6 -24 -5 -26 17 -20 31 7 42 -3 19 -20 -16 -12 -16 -13 1 -19 25 -10 47 1 47 23 0 11 7 25 15 32 8 7 12 17 9 22 -3 5 -13 0 -21 -11 -22 -32 -40 -25 -48 16 -4 21 -13 49 -20 63 -13 24 -12 27 18 40 30 14 30 15 9 18 l-22 3 20 29 c24 33 25 44 6 59 -10 8 -16 9 -21 1z"/> <path d="M1376 1235 c-11 -8 -16 -20 -12 -30 3 -9 2 -14 -3 -11 -5 3 -11 0 -14 -8 -9 -22 22 -28 48 -8 27 19 40 46 30 62 -9 14 -26 12 -49 -5z"/> <path d="M1825 1228 c11 -36 34 -68 49 -68 7 0 19 -7 26 -15 10 -12 15 -13 20 -4 13 21 29 0 36 -49 3 -26 10 -55 15 -64 10 -18 -5 -35 -16 -18 -3 5 -15 10 -26 10 -14 0 -19 -7 -19 -26 0 -14 4 -23 10 -19 6 3 17 -1 26 -9 8 -9 12 -16 8 -16 -3 0 -1 -7 6 -15 10 -12 10 -18 0 -30 -11 -13 -8 -14 19 -9 26 6 31 4 31 -13 0 -12 -11 -25 -26 -31 -19 -9 -24 -17 -19 -31 4 -14 0 -23 -15 -31 -11 -6 -20 -8 -20 -4 0 4 -11 -3 -24 -15 -28 -27 -39 -78 -18 -86 32 -12 52 -5 52 18 0 12 13 38 30 57 16 19 29 43 30 53 0 10 15 24 34 34 19 8 39 27 45 40 10 22 9 24 -10 18 -13 -5 -19 -3 -15 3 8 13 -12 28 -49 36 -62 15 -71 49 -10 39 21 -3 41 -1 50 7 19 16 10 30 -21 30 -16 0 -24 6 -24 17 0 36 -52 122 -80 132 -15 5 -41 25 -56 45 -33 41 -48 46 -39 14z"/> <path d="M1750 1225 c-13 -16 -13 -17 36 -117 12 -25 11 -28 -5 -28 -19 0 -51 -31 -70 -67 -7 -15 -21 -23 -37 -23 -13 0 -27 -7 -30 -15 -4 -10 -20 -15 -45 -15 -21 0 -39 -3 -39 -6 0 -18 23 -43 50 -54 16 -7 30 -18 30 -26 0 -15 40 -45 50 -39 11 7 33 -22 26 -34 -4 -6 -17 -5 -36 2 -31 12 -60 3 -63 -18 -2 -14 73 -37 99 -31 11 3 26 16 32 30 9 19 7 27 -9 44 -24 26 -24 26 4 55 74 80 91 109 90 159 0 33 3 48 13 48 23 0 27 21 5 27 -30 8 -61 62 -54 96 4 22 2 27 -15 27 -11 0 -25 -7 -32 -15z m60 -201 c0 -32 -16 -58 -71 -113 -9 -9 -19 -24 -22 -34 -6 -16 -9 -17 -37 -2 -16 8 -34 24 -40 34 -8 16 -5 23 16 40 15 12 33 21 40 21 7 0 32 22 55 50 23 27 46 47 50 44 5 -3 9 -21 9 -40z"/> <path d="M1615 1200 c4 -19 7 -43 7 -52 0 -9 8 -33 19 -54 10 -21 19 -46 19 -56 0 -18 24 -25 34 -10 7 12 -35 132 -45 132 -5 0 -9 8 -9 18 0 10 -7 27 -16 38 -15 18 -15 17 -9 -16z"/> <path d="M1091 1181 c0 -7 -12 -27 -27 -43 -16 -20 -23 -37 -18 -47 4 -9 8 -38 9 -64 3 -52 14 -76 16 -36 1 21 2 21 9 -6 5 -18 7 8 5 67 -2 58 1 98 7 100 6 2 8 13 5 23 -2 11 -5 14 -6 6z"/> <path d="M1408 1156 l-37 -37 16 -37 c8 -20 21 -49 29 -64 12 -23 11 -27 -3 -32 -26 -10 -53 4 -53 26 0 21 0 21 -24 -1 -14 -13 -37 -49 -52 -80 -16 -31 -39 -68 -52 -82 -27 -30 -18 -42 23 -31 21 6 36 23 59 67 34 64 61 89 75 67 4 -7 15 -10 25 -6 10 4 21 3 25 -2 3 -5 29 -24 58 -42 28 -18 57 -40 63 -48 13 -14 50 -20 50 -6 -1 13 -27 42 -39 42 -7 0 -9 4 -6 10 3 5 -6 12 -20 16 -14 3 -22 11 -18 17 4 6 0 8 -9 5 -19 -8 -36 12 -73 87 -17 33 -35 65 -40 70 -6 6 -9 9 -6 8 7 -4 52 69 49 79 -2 6 -20 -6 -40 -26z"/> <path d="M1287 1173 c-11 -10 -8 -55 2 -49 5 4 8 -6 6 -20 -1 -16 6 -36 22 -52 l24 -27 -3 25 c-2 14 -9 24 -16 22 -9 -1 -10 3 -5 15 7 16 9 43 4 81 -1 13 -23 16 -34 5z"/> <path d="M1219 1168 c-1 -2 -3 -15 -5 -30 -2 -24 1 -28 22 -28 22 0 25 4 22 27 -2 17 -10 29 -20 31 -10 2 -19 2 -19 0z"/> <path d="M1879 1094 c-9 -12 -10 -20 -2 -33 8 -13 7 -23 -7 -41 -10 -14 -16 -28 -14 -32 3 -4 1 -8 -4 -8 -6 0 -8 -9 -5 -19 5 -18 6 -18 22 -3 10 10 16 21 13 25 -7 14 20 67 35 67 23 0 27 30 7 45 -24 18 -29 18 -45 -1z"/> <path d="M1170 1065 c13 -14 31 -24 39 -24 13 1 12 2 -1 6 -10 2 -18 10 -18 18 0 7 -7 16 -16 19 -27 10 -28 7 -4 -19z"/> <path d="M1232 1082 c-17 -11 -4 -45 14 -38 9 3 14 -2 14 -14 0 -11 6 -20 14 -20 19 0 32 20 18 29 -5 3 -11 15 -13 26 -5 22 -27 30 -47 17z"/> <path d="M935 1033 c-11 -16 -20 -23 -23 -15 -5 17 -33 15 -60 -4 -15 -11 -34 -14 -55 -10 -73 13 -74 -40 -2 -100 25 -20 45 -42 45 -48 0 -7 -13 -25 -30 -41 -41 -39 -40 -72 3 -83 37 -10 59 7 27 22 -20 9 -28 36 -12 36 5 0 15 12 23 28 18 36 45 62 55 54 5 -4 2 1 -5 11 -7 9 -20 17 -27 17 -8 0 -14 10 -14 24 0 13 -6 26 -12 29 -10 4 -10 7 0 18 16 17 46 1 50 -27 2 -10 14 -27 27 -37 l25 -18 -10 26 c-5 13 -16 36 -25 49 -15 22 -14 24 10 40 34 22 54 14 88 -35 32 -46 35 -104 8 -176 -12 -33 -25 -47 -63 -68 -27 -15 -45 -31 -42 -37 4 -6 0 -6 -13 1 -11 6 -23 7 -27 4 -3 -3 -6 4 -6 17 0 39 -10 16 -20 -45 -5 -32 -16 -65 -25 -75 -8 -9 -15 -24 -15 -33 0 -28 30 -19 41 12 6 16 22 37 35 46 14 9 29 27 34 39 5 13 28 33 53 45 53 26 65 38 81 86 25 73 -32 266 -81 273 -13 2 -26 -7 -38 -25z m-110 -73 c11 -17 -5 -32 -21 -19 -8 6 -14 15 -14 20 0 12 27 11 35 -1z"/> <path d="M1221 1016 c3 -3 1 -30 -6 -59 -10 -41 -16 -52 -31 -50 -17 2 -19 -5 -19 -59 0 -41 -4 -63 -13 -66 -27 -9 -133 -95 -129 -106 9 -27 38 -13 87 43 29 34 61 61 70 61 13 0 19 12 24 50 4 27 11 52 16 55 5 3 14 24 20 46 6 22 13 46 16 54 3 8 -5 19 -18 26 -13 6 -20 9 -17 5z"/> <path d="M2105 983 c-19 -21 -35 -41 -35 -45 0 -11 42 -32 65 -32 11 -1 19 -7 18 -13 -2 -7 2 -13 8 -13 5 0 7 -5 4 -10 -4 -6 -10 -8 -15 -5 -4 3 -11 -2 -14 -11 -3 -8 -2 -12 4 -9 5 3 7 -1 4 -9 -5 -12 -9 -13 -19 -3 -7 7 -10 16 -7 21 3 5 -2 6 -12 3 -10 -4 -20 -7 -22 -7 -2 0 -4 -13 -4 -30 0 -22 -4 -28 -15 -24 -31 12 -62 -22 -76 -86 -11 -49 -19 -64 -37 -71 -32 -12 -18 -29 24 -29 27 0 34 4 34 20 0 11 4 28 9 38 5 9 12 25 15 35 3 9 15 17 26 17 15 0 20 -7 20 -25 0 -30 15 -33 30 -6 6 13 17 17 30 14 15 -4 20 0 20 13 0 11 11 31 25 46 26 28 35 73 13 66 -7 -3 -20 -20 -31 -39 -10 -19 -26 -41 -35 -51 -16 -15 -19 -15 -52 3 -34 19 -30 23 20 20 22 -2 29 6 50 56 13 32 24 63 25 70 0 7 8 18 18 25 16 12 16 15 2 33 -15 20 -15 20 -33 -1 -10 -11 -25 -21 -35 -21 -26 0 -21 32 8 51 25 16 34 46 14 46 -5 0 -26 -17 -44 -37z"/> <path d="M1810 927 c-14 -17 -18 -27 -10 -23 8 5 3 -4 -12 -21 -32 -34 -35 -48 -11 -57 10 -4 13 -10 8 -14 -16 -12 -15 -30 2 -36 13 -5 15 0 9 32 -5 33 -1 45 25 80 17 23 26 42 20 42 -6 0 -8 7 -5 15 9 22 2 18 -26 -18z"/> <path d="M1090 923 c-6 -91 0 -113 30 -113 23 0 26 10 8 28 -10 10 -10 14 0 21 9 5 10 14 3 32 -6 14 -10 18 -11 9 -1 -8 -8 -1 -15 15 -13 27 -14 28 -15 8z"/> <path d="M2205 900 c-3 -5 -3 -10 1 -10 3 0 -1 -11 -10 -25 -9 -14 -12 -25 -7 -25 5 0 13 5 16 10 8 13 25 13 25 -1 0 -13 25 -39 38 -39 6 0 12 -3 14 -7 9 -20 68 -64 77 -58 27 16 -49 95 -91 95 -24 0 -27 3 -19 18 17 32 -25 73 -44 42z"/> <path d="M1836 806 c-15 -13 -26 -30 -26 -39 0 -8 -7 -18 -16 -21 -22 -9 -24 -8 -24 10 0 12 -6 10 -21 -10 -12 -15 -30 -26 -45 -26 -15 0 -24 -6 -24 -15 0 -19 53 -20 69 -1 7 8 22 11 37 8 33 -6 66 31 57 66 -4 19 -1 22 23 24 16 0 36 1 44 0 11 0 10 3 -4 14 -27 20 -41 18 -70 -10z"/> <path d="M2255 779 c-4 -6 -14 -8 -22 -5 -8 3 -12 2 -9 -3 3 -4 -5 -18 -19 -31 -13 -12 -29 -35 -35 -51 -7 -16 -16 -29 -21 -29 -5 0 -15 -15 -22 -32 -8 -18 -24 -42 -36 -52 -28 -25 -27 -36 4 -36 17 0 25 6 25 17 0 18 18 39 93 110 41 40 47 58 16 48 -18 -6 -20 -5 -10 14 13 23 30 28 32 9 1 -7 3 -23 4 -36 1 -13 13 -31 26 -40 28 -19 50 -43 65 -68 9 -14 15 -16 23 -8 9 8 1 22 -27 53 -37 40 -62 95 -62 135 0 18 -15 22 -25 5z"/> <path d="M740 725 c0 -3 7 -17 16 -30 14 -22 15 -33 4 -89 -11 -57 -15 -65 -46 -80 -19 -9 -52 -16 -74 -16 -44 0 -65 -23 -49 -53 16 -27 64 -22 87 10 11 16 24 25 28 21 10 -11 -17 -70 -41 -90 -16 -13 -18 -20 -9 -35 17 -28 42 -27 71 1 14 14 30 23 35 20 5 -3 33 13 62 35 37 29 55 51 60 72 3 19 16 36 36 47 16 9 30 20 30 24 0 5 16 26 36 48 35 38 38 60 8 60 -8 0 -17 -8 -21 -17 -6 -19 -141 -153 -153 -153 -3 0 -14 15 -22 34 -12 25 -14 36 -5 45 6 6 10 31 8 55 -1 24 3 47 9 51 18 11 11 23 -21 34 -35 12 -49 14 -49 6z m26 -253 c1 -46 -30 -40 -32 6 -1 26 2 32 15 30 11 -2 16 -14 17 -36z m64 6 c0 -14 -30 -48 -42 -48 -4 0 -8 12 -8 28 0 21 2 24 10 12 8 -13 10 -12 10 3 0 9 7 17 15 17 8 0 15 -5 15 -12z"/> <path d="M2315 719 c-5 -7 59 -77 90 -100 33 -23 56 -66 49 -93 -8 -33 -31 -40 -63 -19 -14 9 -37 23 -51 30 -17 9 -25 21 -25 39 0 33 -24 44 -32 15 -6 -25 -28 -28 -37 -5 -4 10 -2 13 6 8 7 -5 9 -2 5 8 -4 12 -1 14 14 11 22 -6 25 9 5 26 -10 9 -16 9 -21 1 -4 -6 -15 -8 -24 -5 -10 3 -24 -1 -31 -10 -11 -13 -9 -19 9 -38 27 -29 26 -33 -4 -73 -15 -19 -21 -35 -15 -39 16 -10 27 2 33 35 4 16 11 30 17 30 6 0 35 -18 65 -40 30 -22 66 -45 80 -52 14 -6 25 -14 25 -18 0 -4 16 -15 35 -24 19 -9 35 -23 35 -31 0 -20 29 -19 37 2 7 18 -38 63 -63 63 -8 0 -12 5 -9 10 3 6 1 10 -4 10 -6 0 -11 5 -11 11 0 7 12 8 33 4 30 -7 38 -13 39 -32 0 -5 9 -14 19 -21 11 -7 19 -24 19 -37 0 -14 11 -31 28 -43 25 -18 47 -26 127 -49 21 -5 36 -20 48 -46 10 -20 25 -37 33 -37 8 0 14 -3 14 -8 0 -17 40 -32 60 -22 27 14 26 40 -1 37 -27 -3 -78 58 -89 106 l-8 35 59 7 c37 4 59 12 59 19 0 20 -12 27 -26 15 -10 -8 -131 -39 -154 -39 -3 0 -23 16 -44 35 -25 22 -50 35 -67 35 -25 0 -47 15 -37 26 3 2 20 5 38 7 36 4 50 20 29 33 -7 4 -42 7 -78 6 -46 -2 -62 1 -54 9 10 10 0 55 -21 87 -5 9 0 23 17 40 16 17 25 37 24 54 -2 33 -20 36 -40 8 -12 -18 -15 -18 -20 -5 -4 8 -16 15 -27 15 -11 0 -20 4 -20 8 0 10 -70 11 -75 1z m99 -54 c11 -8 17 -18 13 -22 -10 -10 -59 15 -52 27 8 13 16 12 39 -5z m221 -300 c17 -14 27 -25 23 -25 -15 0 -78 34 -78 42 0 15 25 7 55 -17z"/> <path d="M2034 645 c-9 -23 3 -45 24 -45 29 0 48 26 32 45 -7 8 -21 15 -32 15 -10 0 -21 -7 -24 -15z"/> <path d="M2138 554 c-10 -21 -9 -27 3 -35 37 -23 78 8 58 44 -15 26 -48 21 -61 -9z"/> <path d="M2382 568 c-15 -15 -15 -25 1 -25 6 0 20 -4 29 -8 23 -9 37 23 17 36 -19 12 -33 11 -47 -3z"/> </g> </svg> 